<svg width="16" height="16" viewBox="0 0 16 16" fill="none" xmlns="http://www.w3.org/2000/svg">
<path d="M5.33073 13.3335V9.3335H10.6641V13.3335H12.6641V2.66683H3.33073V13.3335H5.33073ZM6.66406 13.3335H9.33073V10.6668H6.66406V13.3335ZM13.9974 13.3335H15.3307V14.6668H0.664062V13.3335H1.9974V2.00016C1.9974 1.82335 2.06763 1.65378 2.19266 1.52876C2.31768 1.40373 2.48725 1.3335 2.66406 1.3335H13.3307C13.5075 1.3335 13.6771 1.40373 13.8021 1.52876C13.9272 1.65378 13.9974 1.82335 13.9974 2.00016V13.3335ZM7.33073 5.3335V4.00016H8.66406V5.3335H9.9974V6.66683H8.66406V8.00016H7.33073V6.66683H5.9974V5.3335H7.33073Z" fill="#1F1F1F"/>
</svg>
