<svg width="16" height="16" viewBox="0 0 16 16" fill="none" xmlns="http://www.w3.org/2000/svg">
<path d="M11.5013 4.66675C11.5013 4.53414 11.4486 4.40696 11.3549 4.31319C11.2611 4.21943 11.1339 4.16675 11.0013 4.16675C10.8687 4.16675 10.7415 4.21943 10.6477 4.31319C10.554 4.40696 10.5013 4.53414 10.5013 4.66675V5.50008H9.66797C9.53536 5.50008 9.40818 5.55276 9.31442 5.64653C9.22065 5.7403 9.16797 5.86747 9.16797 6.00008C9.16797 6.13269 9.22065 6.25987 9.31442 6.35363C9.40818 6.4474 9.53536 6.50008 9.66797 6.50008H10.5013V7.33341C10.5013 7.46602 10.554 7.5932 10.6477 7.68697C10.7415 7.78074 10.8687 7.83341 11.0013 7.83341C11.1339 7.83341 11.2611 7.78074 11.3549 7.68697C11.4486 7.5932 11.5013 7.46602 11.5013 7.33341V6.50008H12.3346C12.4672 6.50008 12.5944 6.4474 12.6882 6.35363C12.782 6.25987 12.8346 6.13269 12.8346 6.00008C12.8346 5.86747 12.782 5.7403 12.6882 5.64653C12.5944 5.55276 12.4672 5.50008 12.3346 5.50008H11.5013V4.66675Z" fill="black"/>
<path fill-rule="evenodd" clip-rule="evenodd" d="M15.1654 6.21202C15.1654 3.99468 14.1774 2.34002 12.6387 1.73802C11.2154 1.18002 9.5067 1.59735 7.9987 3.00868C6.4907 1.59735 4.78203 1.18002 3.3587 1.73802C1.82003 2.34002 0.832031 3.99468 0.832031 6.21135C0.832031 7.62402 1.58536 9.01335 2.52336 10.2094C3.47136 11.418 4.66336 12.5 5.65803 13.3074L5.74736 13.3807C6.54736 14.0307 7.12603 14.5007 7.9987 14.5007C8.87203 14.5007 9.44936 14.0307 10.25 13.3807L10.3394 13.3074C11.334 12.5007 12.526 11.418 13.474 10.2094C14.412 9.01335 15.1654 7.62402 15.1654 6.21202ZM8.36403 4.05802C9.77203 2.55202 11.2314 2.26068 12.2747 2.66868C13.32 3.07802 14.1654 4.27535 14.1654 6.21202C14.1654 7.28602 13.5787 8.45468 12.6867 9.59202C11.804 10.7187 10.676 11.7467 9.70936 12.5314C8.7807 13.2847 8.4807 13.5 7.9987 13.5C7.5167 13.5 7.2167 13.2847 6.28803 12.5307C5.32136 11.7467 4.19336 10.718 3.3107 9.59268C2.41803 8.45468 1.83203 7.28602 1.83203 6.21202C1.83203 4.27535 2.67736 3.07868 3.7227 2.66868C4.76603 2.26068 6.22536 2.55202 7.63336 4.05802C7.68014 4.10808 7.73671 4.14799 7.79955 4.17528C7.8624 4.20257 7.93018 4.21665 7.9987 4.21665C8.06721 4.21665 8.135 4.20257 8.19784 4.17528C8.26069 4.14799 8.31725 4.10808 8.36403 4.05802Z" fill="black"/>
</svg>
