<svg width="14" height="14" viewBox="0 0 14 14" fill="none" xmlns="http://www.w3.org/2000/svg">
<path d="M0.582031 10.781L3.02603 12.818C3.38544 13.1173 3.83835 13.2811 4.30603 13.281H10.749C11.209 13.281 11.582 12.908 11.582 12.448C11.582 11.528 10.836 10.781 9.91503 10.781H5.43603M8.31403 1.03103C8.18142 1.03103 8.05425 1.08371 7.96048 1.17748C7.86671 1.27124 7.81403 1.39842 7.81403 1.53103V2.93803H6.40803C6.27542 2.93803 6.14825 2.99071 6.05448 3.08448C5.96071 3.17824 5.90803 3.30542 5.90803 3.43803V5.06303C5.90803 5.19564 5.96071 5.32281 6.05448 5.41658C6.14825 5.51035 6.27542 5.56303 6.40803 5.56303H7.81403V6.96903C7.81403 7.10164 7.86671 7.22881 7.96048 7.32258C8.05425 7.41635 8.18142 7.46903 8.31403 7.46903H9.93903C10.0716 7.46903 10.1988 7.41635 10.2926 7.32258C10.3864 7.22881 10.439 7.10164 10.439 6.96903V5.56303H11.845C11.9776 5.56303 12.1048 5.51035 12.1986 5.41658C12.2924 5.32281 12.345 5.19564 12.345 5.06303V3.43803C12.345 3.30542 12.2924 3.17824 12.1986 3.08448C12.1048 2.99071 11.9776 2.93803 11.845 2.93803H10.439V1.53003C10.439 1.39742 10.3864 1.27024 10.2926 1.17648C10.1988 1.08271 10.0716 1.03003 9.93903 1.03003L8.31403 1.03103Z" stroke="black" stroke-linecap="round" stroke-linejoin="round"/>
<path d="M3.58203 9.78101L4.33203 10.531C4.43052 10.6295 4.54745 10.7076 4.67613 10.7609C4.80482 10.8142 4.94274 10.8417 5.08203 10.8417C5.22132 10.8417 5.35924 10.8142 5.48793 10.7609C5.61661 10.7076 5.73354 10.6295 5.83203 10.531C5.93052 10.4325 6.00865 10.3156 6.06195 10.1869C6.11526 10.0582 6.14269 9.92029 6.14269 9.78101C6.14269 9.64172 6.11526 9.50379 6.06195 9.37511C6.00865 9.24642 5.93052 9.1295 5.83203 9.03101L4.66803 7.86701C4.29305 7.49191 3.78442 7.28112 3.25403 7.28101H0.582031" stroke="black" stroke-linecap="round" stroke-linejoin="round"/>
</svg>
