<svg width="16" height="16" viewBox="0 0 16 16" fill="none" xmlns="http://www.w3.org/2000/svg">
<path d="M10.8566 1.71411H12.5709C12.874 1.71411 13.1647 1.83452 13.379 2.04885C13.5933 2.26317 13.7137 2.55386 13.7137 2.85697V14.2855C13.7137 14.5886 13.5933 14.8793 13.379 15.0937C13.1647 15.308 12.874 15.4284 12.5709 15.4284H3.42801C3.12491 15.4284 2.83422 15.308 2.61989 15.0937C2.40556 14.8793 2.28516 14.5886 2.28516 14.2855V2.85697C2.28516 2.55386 2.40556 2.26317 2.61989 2.04885C2.83422 1.83452 3.12491 1.71411 3.42801 1.71411H5.1423" stroke="black" stroke-linecap="round" stroke-linejoin="round"/>
<path d="M9.71299 0.571289H6.28442C5.98131 0.571289 5.69062 0.691697 5.47629 0.906024C5.26197 1.12035 5.14156 1.41104 5.14156 1.71415V2.28557C5.14156 2.58868 5.26197 2.87937 5.47629 3.0937C5.69062 3.30802 5.98131 3.42843 6.28442 3.42843H9.71299C10.0161 3.42843 10.3068 3.30802 10.5211 3.0937C10.7354 2.87937 10.8558 2.58868 10.8558 2.28557V1.71415C10.8558 1.41104 10.7354 1.12035 10.5211 0.906024C10.3068 0.691697 10.0161 0.571289 9.71299 0.571289ZM7.20213 5.95415C7.07179 5.95415 6.9468 6.00592 6.85464 6.09808C6.76248 6.19024 6.7107 6.31524 6.7107 6.44557V7.825H5.33127C5.20094 7.825 5.07594 7.87678 4.98378 7.96894C4.89162 8.0611 4.83984 8.1861 4.83984 8.31643V9.91072C4.83984 10.1816 5.06041 10.4021 5.33127 10.4021H6.7107V11.7816C6.7107 12.0524 6.93127 12.273 7.20213 12.273H8.79642C8.92675 12.273 9.05175 12.2212 9.14391 12.1291C9.23607 12.0369 9.28784 11.9119 9.28784 11.7816V10.3999H10.6673C10.7976 10.3999 10.9226 10.3481 11.0148 10.2559C11.1069 10.1638 11.1587 10.0388 11.1587 9.90843V8.31643C11.1584 8.18629 11.1065 8.06159 11.0144 7.96968C10.9222 7.87776 10.7974 7.82615 10.6673 7.82615H9.28784V6.44443C9.28754 6.31429 9.23563 6.18959 9.1435 6.09768C9.05138 6.00576 8.92655 5.95415 8.79642 5.95415H7.20213Z" stroke="black" stroke-linecap="round" stroke-linejoin="round"/>
</svg>
