<svg width="13" height="13" viewBox="0 0 13 13" fill="none" xmlns="http://www.w3.org/2000/svg">
<path d="M0.0426232 6.7508C0.0426233 8.48127 0.648285 9.95216 1.85961 11.1635C3.07093 12.3748 4.54183 12.9805 6.27229 12.9805C8.00275 12.9805 9.47364 12.3748 10.685 11.1635C11.8963 9.95216 12.502 8.48127 12.502 6.7508C12.502 6.58929 12.4962 6.43055 12.4846 6.27458C12.4731 6.11907 12.4558 5.96633 12.4327 5.81635C12.0982 6.28935 11.6628 6.66705 11.1266 6.94946C10.5899 7.23233 10.0101 7.37377 9.38712 7.37377C8.34884 7.37377 7.46631 7.01037 6.73951 6.28358C6.01272 5.55678 5.64932 4.67425 5.64932 3.63597C5.64932 3.00147 5.79076 2.41888 6.07363 1.8882C6.35604 1.35753 6.73374 0.924914 7.20674 0.590358C7.05676 0.567285 6.90402 0.54998 6.74851 0.538444C6.59254 0.526907 6.4338 0.521139 6.27229 0.521139C4.54183 0.521139 3.07093 1.1268 1.85961 2.33812C0.648284 3.54945 0.0426232 5.02034 0.0426232 6.7508Z" fill="white"/>
</svg>
