<svg width="15" height="15" viewBox="0 0 15 15" fill="none" xmlns="http://www.w3.org/2000/svg">
<path d="M7.27314 4.22291C9.00679 4.22291 10.4138 5.62993 10.4138 7.36358C10.4138 9.09723 9.00679 10.5043 7.27314 10.5043C5.53949 10.5043 4.13246 9.09723 4.13246 7.36358C4.13246 5.62993 5.53949 4.22291 7.27314 4.22291ZM13.5545 7.99172L12.2982 7.99172C11.9527 7.99172 11.6701 7.70906 11.6701 7.36358C11.6701 7.01811 11.9527 6.73545 12.2982 6.73545L13.5545 6.73545C13.9 6.73545 14.1826 7.01811 14.1826 7.36358C14.1826 7.70906 13.9 7.99172 13.5545 7.99172ZM2.24806 7.99172L0.991791 7.99172C0.646317 7.99172 0.363656 7.70905 0.363656 7.36358C0.363656 7.01811 0.646317 6.73545 0.991791 6.73545L2.24806 6.73545C2.59353 6.73545 2.87619 7.01811 2.87619 7.36358C2.87619 7.70905 2.59353 7.99172 2.24806 7.99172ZM7.90127 1.08224L7.90127 2.3385C7.90127 2.68398 7.61861 2.96664 7.27314 2.96664C6.92766 2.96664 6.645 2.68398 6.645 2.3385L6.645 1.08224C6.645 0.736761 6.92766 0.454101 7.27314 0.454101C7.61861 0.454101 7.90127 0.736762 7.90127 1.08224ZM7.90127 12.3887L7.90127 13.6449C7.90127 13.9904 7.61861 14.2731 7.27314 14.2731C6.92766 14.2731 6.645 13.9904 6.645 13.6449L6.645 12.3887C6.645 12.0432 6.92766 11.7605 7.27314 11.7605C7.61861 11.7605 7.90127 12.0432 7.90127 12.3887ZM11.0482 2.70282C11.1063 2.64459 11.1754 2.59839 11.2513 2.56687C11.3273 2.53535 11.4088 2.51913 11.4911 2.51913C11.5733 2.51913 11.6548 2.53535 11.7308 2.56687C11.8068 2.59839 11.8758 2.64459 11.9339 2.70282C11.9921 2.76093 12.0383 2.82996 12.0698 2.90595C12.1014 2.98193 12.1176 3.06339 12.1176 3.14566C12.1176 3.22792 12.1014 3.30938 12.0698 3.38537C12.0383 3.46136 11.9921 3.53038 11.9339 3.58849L11.2681 4.25432C11.0231 4.49929 10.6211 4.49929 10.3824 4.25432C10.1437 4.00934 10.1374 3.60734 10.3824 3.36865L11.0482 2.70282ZM3.2782 10.4728C3.33631 10.4146 3.40534 10.3684 3.48132 10.3369C3.55731 10.3054 3.63877 10.2892 3.72104 10.2892C3.8033 10.2892 3.88476 10.3054 3.96075 10.3369C4.03673 10.3684 4.10576 10.4146 4.16387 10.4728C4.2221 10.531 4.2683 10.6 4.29982 10.676C4.33134 10.752 4.34756 10.8334 4.34756 10.9157C4.34756 10.9979 4.33134 11.0794 4.29982 11.1554C4.2683 11.2314 4.2221 11.3004 4.16387 11.3585L3.49805 12.0243C3.25307 12.2693 2.85107 12.2693 2.61238 12.0243C2.55415 11.9662 2.50795 11.8972 2.47643 11.8212C2.44491 11.7452 2.42868 11.6638 2.42868 11.5815C2.42868 11.4992 2.44491 11.4178 2.47643 11.3418C2.50795 11.2658 2.55415 11.1968 2.61238 11.1387L3.2782 10.4728ZM2.61238 3.58849C2.55415 3.53038 2.50795 3.46136 2.47643 3.38537C2.44491 3.30938 2.42868 3.22792 2.42868 3.14566C2.42868 3.06339 2.44491 2.98193 2.47643 2.90595C2.50795 2.82996 2.55415 2.76093 2.61238 2.70282C2.67049 2.64459 2.73951 2.59839 2.8155 2.56687C2.89149 2.53535 2.97295 2.51913 3.05521 2.51913C3.13748 2.51913 3.21894 2.53535 3.29492 2.56687C3.37091 2.59839 3.43994 2.64459 3.49805 2.70282L4.16387 3.36864C4.40884 3.61362 4.40884 4.01562 4.16387 4.25431C3.9189 4.49301 3.51689 4.49929 3.2782 4.25431L2.61238 3.58849ZM10.3824 11.3585C10.3242 11.3004 10.278 11.2314 10.2465 11.1554C10.2149 11.0794 10.1987 10.9979 10.1987 10.9157C10.1987 10.8334 10.2149 10.752 10.2465 10.676C10.278 10.6 10.3242 10.531 10.3824 10.4728C10.4405 10.4146 10.5095 10.3684 10.5855 10.3369C10.6615 10.3054 10.743 10.2892 10.8252 10.2892C10.9075 10.2892 10.989 10.3054 11.0649 10.3369C11.1409 10.3684 11.21 10.4146 11.2681 10.4728L11.9339 11.1387C12.1789 11.3836 12.1789 11.7856 11.9339 12.0243C11.6889 12.263 11.2869 12.2693 11.0482 12.0243L10.3824 11.3585Z" fill="black"/>
</svg>
